<svg style="display: none;"
 version="1.0" xmlns="http://www.w3.org/2000/svg"
 width="100px" height="100px" viewBox="0 0 1150.000000 1150.000000"
 preserveAspectRatio="xMidYMid meet">
<g transform="translate(0.000000,1150.000000) scale(0.100000,-0.100000)"
fill="#fff"  stroke="none" id="sic-mundus">
<path d="M5329 11496 c-3 -3 -47 -6 -97 -7 -51 -1 -94 -4 -96 -8 -3 -4 -22 -6
-43 -5 -85 4 -504 -65 -583 -96 -14 -6 -88 -23 -166 -39 -126 -27 -353 -92
-379 -110 -9 -7 -80 -29 -114 -36 -39 -8 -215 -76 -268 -104 -32 -17 -65 -31
-74 -31 -9 0 -19 -3 -23 -7 -3 -4 -15 -8 -25 -10 -22 -3 -143 -60 -192 -90
-19 -12 -59 -31 -90 -43 -31 -11 -94 -44 -140 -72 -46 -28 -113 -65 -149 -83
-36 -18 -102 -58 -147 -89 -46 -31 -83 -54 -83 -51 0 7 -78 -46 -151 -102 -30
-24 -59 -43 -63 -43 -11 0 -88 -54 -124 -89 -18 -16 -50 -40 -70 -52 -20 -13
-64 -45 -97 -73 -33 -28 -91 -77 -130 -108 -78 -63 -316 -283 -384 -356 -157
-167 -272 -294 -306 -337 -22 -27 -66 -80 -97 -117 -32 -37 -65 -82 -74 -100
-9 -18 -23 -37 -30 -41 -16 -9 -104 -131 -104 -144 0 -5 -15 -27 -34 -49 -34
-40 -126 -178 -126 -189 0 -4 -20 -34 -44 -68 -24 -34 -59 -93 -78 -132 -19
-38 -46 -87 -60 -107 -14 -21 -43 -73 -63 -115 -41 -85 -55 -113 -121 -246
-24 -48 -46 -95 -48 -105 -4 -23 -11 -41 -56 -142 -49 -112 -85 -210 -105
-290 -9 -36 -20 -69 -25 -75 -9 -10 -33 -82 -69 -200 -11 -38 -32 -127 -46
-197 -14 -70 -30 -140 -35 -154 -33 -85 -100 -491 -96 -577 1 -21 -1 -40 -4
-42 -11 -7 -14 -140 -15 -595 0 -459 4 -628 15 -635 3 -2 5 -21 4 -42 -5 -92
53 -432 102 -601 13 -45 26 -104 30 -130 6 -52 27 -140 51 -217 37 -117 55
-171 63 -180 5 -6 17 -44 28 -85 23 -86 67 -206 110 -300 33 -71 44 -99 48
-117 4 -24 69 -158 102 -214 18 -31 35 -66 37 -78 5 -25 80 -167 101 -192 8
-8 30 -49 50 -90 20 -41 56 -102 80 -136 24 -34 44 -64 44 -68 0 -11 92 -149
126 -189 19 -22 34 -44 34 -49 0 -13 88 -135 104 -144 7 -4 21 -23 30 -41 10
-19 45 -66 79 -105 34 -40 75 -90 92 -112 103 -140 523 -560 705 -705 35 -29
91 -75 125 -104 33 -28 77 -60 98 -71 20 -11 37 -23 37 -26 0 -9 134 -109 146
-109 4 0 33 -19 63 -43 73 -56 151 -109 151 -102 0 3 37 -20 82 -51 46 -31
108 -69 138 -83 30 -15 89 -47 130 -73 41 -25 96 -56 123 -67 84 -37 132 -60
157 -75 39 -24 153 -77 172 -79 10 -2 21 -6 24 -10 4 -4 14 -7 23 -7 9 0 41
-13 72 -30 55 -28 230 -97 266 -104 42 -8 109 -29 118 -36 27 -21 312 -103
400 -115 22 -3 65 -12 95 -21 189 -54 536 -115 633 -110 21 1 40 -1 43 -5 6
-11 156 -14 634 -14 455 1 588 4 595 15 2 3 21 5 42 4 41 -2 154 10 243 26
195 35 290 54 325 65 59 20 115 34 160 40 50 7 154 32 220 52 84 26 169 56
180 64 9 7 78 27 118 35 36 7 211 76 266 104 31 17 63 30 72 30 9 0 19 3 23 7
3 4 15 8 25 10 22 3 143 60 192 90 19 12 59 31 90 43 31 11 94 44 140 72 46
28 113 65 149 83 36 18 102 58 148 89 45 31 82 54 82 51 0 -8 117 72 164 112
22 18 44 33 48 33 13 0 88 53 126 89 18 16 50 40 70 52 20 13 64 45 97 73 33
29 92 77 130 108 76 60 312 280 384 356 158 168 281 303 306 337 17 22 58 72
92 112 34 39 69 86 79 105 9 18 23 37 30 41 16 9 104 131 104 143 0 5 19 32
43 61 23 29 57 78 76 110 19 32 55 90 82 129 26 38 63 101 81 140 19 38 46 86
60 106 14 21 43 73 63 115 41 85 55 113 121 246 24 48 46 95 48 105 1 9 8 30
14 45 7 16 12 32 12 36 0 4 13 32 29 62 15 30 41 90 56 134 15 44 30 87 33 95
3 8 6 20 7 25 12 49 28 102 35 110 8 9 27 63 63 180 24 77 45 165 51 217 4 26
17 85 30 130 49 169 107 509 102 601 -1 21 1 40 5 43 11 6 14 153 14 614 0
441 -4 608 -15 615 -3 2 -5 21 -4 42 5 92 -53 432 -102 601 -13 45 -26 104
-30 130 -6 52 -27 140 -51 217 -36 117 -55 171 -63 180 -7 8 -23 61 -35 110
-1 6 -4 17 -7 25 -3 8 -18 51 -33 95 -15 44 -41 104 -56 134 -16 30 -29 58
-29 62 0 4 -5 20 -12 36 -6 15 -13 36 -14 45 -2 10 -24 57 -48 105 -66 133
-80 161 -121 246 -20 42 -49 94 -63 115 -14 20 -41 68 -60 106 -18 39 -55 102
-81 140 -27 39 -63 97 -82 129 -19 32 -53 81 -76 110 -24 29 -43 56 -43 61 0
12 -88 134 -104 143 -7 4 -21 23 -30 41 -10 19 -45 66 -79 105 -34 40 -75 90
-92 112 -111 150 -583 619 -739 734 -28 21 -69 55 -91 75 -22 20 -58 47 -81
60 -22 14 -56 39 -74 56 -38 36 -114 90 -126 90 -4 0 -33 19 -63 43 -73 56
-151 109 -151 102 0 -3 -37 20 -82 51 -46 31 -112 71 -148 89 -36 18 -103 55
-149 83 -46 28 -109 61 -140 72 -31 12 -73 32 -93 46 -21 13 -40 24 -43 24 -2
0 -33 14 -67 30 -35 17 -71 32 -80 33 -10 2 -21 6 -24 10 -4 4 -14 7 -23 7 -9
0 -42 14 -74 31 -55 29 -230 96 -271 105 -28 5 -88 24 -111 34 -89 41 -287 97
-423 120 -34 6 -88 19 -120 29 -51 17 -142 35 -342 71 -89 16 -202 28 -243 26
-21 -1 -41 2 -43 6 -3 4 -17 7 -32 8 -523 7 -998 11 -1003 6z m691 -426 c543
-43 830 -92 1235 -212 186 -55 479 -160 625 -224 136 -61 510 -254 620 -321
193 -117 568 -383 647 -460 11 -10 42 -37 69 -59 156 -132 446 -421 578 -578
22 -27 49 -58 58 -68 77 -80 344 -456 461 -648 101 -166 309 -580 367 -730 11
-30 24 -64 29 -75 61 -139 176 -509 228 -730 111 -474 165 -1077 133 -1495
-25 -316 -63 -629 -94 -755 -3 -11 -15 -65 -27 -120 -63 -291 -207 -736 -314
-970 -96 -210 -262 -533 -316 -613 -16 -24 -29 -47 -29 -53 0 -5 -4 -9 -10 -9
-5 0 -12 -11 -16 -25 -3 -14 -10 -25 -15 -25 -5 0 -9 -4 -9 -10 0 -8 -85 -139
-113 -175 -4 -5 -49 -67 -100 -136 -50 -69 -103 -139 -117 -156 -14 -16 -41
-49 -60 -73 -136 -167 -452 -488 -624 -635 -33 -27 -67 -58 -77 -67 -83 -79
-457 -345 -649 -461 -166 -101 -580 -309 -730 -367 -30 -11 -64 -24 -75 -29
-139 -61 -509 -176 -730 -228 -469 -110 -1062 -163 -1480 -133 -530 40 -833
91 -1240 212 -186 55 -479 160 -625 224 -136 61 -510 254 -620 321 -191 116
-568 384 -648 461 -10 9 -41 36 -68 58 -156 132 -446 421 -578 578 -22 27 -49
58 -58 68 -33 34 -239 310 -315 421 -126 185 -238 379 -355 617 -125 256 -139
286 -163 355 -10 28 -22 54 -27 59 -4 6 -8 16 -8 24 0 8 -6 28 -14 45 -24 55
-73 198 -105 302 -42 141 -49 168 -77 280 -13 55 -29 116 -34 135 -30 107 -82
446 -100 645 -27 306 -30 363 -30 507 0 287 55 840 104 1043 3 11 15 65 27
120 22 101 73 299 89 345 4 14 23 71 40 128 35 116 143 405 185 497 118 259
326 653 356 675 3 3 9 15 13 28 4 12 12 22 17 22 5 0 9 4 9 10 0 8 85 139 113
175 4 6 49 67 100 136 50 69 103 139 117 156 14 16 41 49 60 73 136 167 452
488 624 635 33 28 67 58 77 67 36 34 312 240 422 315 293 199 638 381 1032
543 61 25 281 101 345 120 41 12 86 25 100 30 46 16 244 67 345 89 55 12 118
26 140 31 22 6 74 15 115 21 266 38 275 39 615 68 147 12 401 13 555 1z"/>
<path d="M5740 10260 c-14 -11 -28 -20 -32 -20 -11 0 -225 -131 -303 -185 -67
-46 -274 -202 -285 -214 -3 -3 -34 -31 -70 -61 -136 -114 -328 -308 -441 -444
-13 -16 -31 -37 -40 -47 -68 -71 -315 -423 -370 -529 -13 -25 -26 -47 -29 -50
-3 -3 -38 -68 -77 -145 -80 -157 -159 -337 -192 -435 -12 -36 -26 -74 -31 -85
-25 -58 -115 -386 -135 -495 -3 -19 -10 -53 -15 -75 -19 -81 -41 -255 -55
-425 -11 -140 -17 -177 -30 -185 -80 -50 -321 -218 -335 -234 -3 -3 -27 -24
-55 -46 -79 -63 -95 -76 -164 -140 -384 -349 -684 -752 -913 -1225 -42 -85
-83 -177 -93 -205 -10 -27 -21 -54 -25 -60 -4 -5 -17 -39 -29 -75 -13 -36 -27
-74 -31 -85 -21 -52 -53 -159 -90 -295 -10 -34 -38 -157 -59 -255 -42 -199
-71 -493 -71 -733 l0 -191 58 -33 c31 -18 80 -45 107 -60 52 -29 324 -164 360
-178 11 -5 36 -15 55 -24 132 -57 279 -109 425 -151 33 -9 80 -23 105 -30 162
-46 458 -97 670 -115 386 -33 677 -19 1075 51 110 20 209 41 275 59 64 17 275
81 295 90 11 4 61 22 110 40 50 18 110 41 135 52 25 10 54 23 65 28 11 4 77
36 147 69 70 34 130 61 134 61 4 0 57 -24 118 -54 307 -151 706 -285 1011
-339 272 -49 552 -77 760 -77 237 1 666 51 895 105 171 40 475 134 555 170 17
8 53 23 80 34 59 22 172 73 235 105 113 57 241 127 300 163 l65 40 -3 214 c-2
215 -10 319 -37 504 -28 189 -78 431 -104 505 -5 14 -19 59 -31 100 -12 41
-25 84 -30 95 -5 11 -20 55 -34 97 -67 205 -241 563 -379 777 -84 131 -226
330 -261 367 -6 6 -29 33 -51 60 -22 27 -58 69 -80 94 -66 76 -296 302 -375
369 -41 35 -86 73 -100 84 -14 12 -63 50 -110 84 -47 35 -89 66 -95 71 -5 4
-50 34 -100 67 -49 32 -92 61 -95 62 -2 2 -7 54 -11 116 -15 250 -60 526 -123
767 -25 95 -109 357 -126 395 -5 11 -25 61 -45 110 -120 300 -290 597 -499
875 -60 80 -111 147 -115 150 -3 3 -30 34 -60 70 -102 121 -423 433 -505 489
-12 8 -23 17 -26 21 -32 36 -349 256 -455 315 -27 15 -54 31 -60 35 -23 18
-105 60 -117 60 -7 0 -24 -9 -38 -20z m182 -643 c212 -149 494 -403 639 -577
30 -35 60 -70 66 -78 25 -26 180 -238 203 -277 13 -22 27 -42 30 -45 14 -11
112 -183 172 -300 70 -137 106 -216 138 -300 11 -30 25 -64 30 -75 28 -64 110
-342 144 -490 19 -85 37 -194 42 -256 2 -26 5 -51 6 -55 5 -16 -16 -13 -61 7
-24 10 -46 19 -50 19 -3 1 -24 9 -46 20 -22 11 -47 19 -55 20 -9 0 -20 4 -25
8 -6 5 -44 18 -85 31 -41 12 -86 27 -99 32 -22 9 -163 48 -256 71 -556 137
-1242 141 -1815 12 -193 -43 -496 -139 -645 -204 -22 -10 -51 -21 -64 -25 -23
-7 -24 -6 -18 41 5 42 18 125 32 199 2 11 8 40 14 65 5 25 12 56 15 70 13 59
36 149 50 195 8 28 20 68 26 90 6 22 18 54 26 72 8 17 14 35 14 40 0 10 54
153 77 203 95 209 238 473 302 556 9 12 23 32 31 44 22 34 172 234 179 240 3
3 31 34 61 70 70 81 266 277 345 343 33 27 62 53 65 57 4 6 227 174 276 208
55 38 100 58 114 51 8 -4 63 -41 122 -82z m130 -2632 c243 -20 481 -60 653
-109 28 -8 68 -20 90 -26 60 -17 186 -60 220 -75 17 -7 86 -37 155 -66 69 -29
152 -67 185 -85 59 -31 60 -33 62 -75 2 -60 -22 -279 -47 -429 -27 -167 -120
-507 -170 -625 -5 -11 -32 -76 -61 -145 -144 -340 -342 -659 -573 -925 -87
-99 -289 -300 -371 -368 -38 -33 -79 -66 -90 -76 -11 -9 -36 -27 -55 -41 -19
-13 -40 -29 -46 -35 -15 -13 -32 -25 -133 -89 l-84 -53 -58 33 c-32 18 -78 47
-102 66 -25 18 -55 40 -67 48 -12 8 -28 20 -34 25 -6 6 -45 37 -86 70 -41 33
-111 94 -155 136 -44 42 -92 87 -106 100 -73 67 -249 269 -324 373 -11 16 -25
33 -30 40 -42 47 -235 355 -235 375 0 6 -4 11 -10 11 -5 0 -10 4 -10 9 0 5
-32 76 -71 157 -89 187 -84 176 -115 259 -97 260 -156 490 -203 790 -14 92
-31 313 -25 328 7 18 212 115 374 177 47 18 94 36 105 41 40 15 222 69 305 89
47 11 101 25 120 29 76 20 303 52 455 65 217 18 322 19 537 1z m1893 -728
c198 -156 363 -315 535 -513 90 -103 310 -412 310 -435 0 -5 5 -9 10 -9 6 0
10 -5 10 -11 0 -6 15 -37 34 -68 68 -112 129 -239 230 -476 25 -58 43 -115 46
-147 0 -4 9 -28 20 -52 10 -24 16 -47 13 -50 -4 -3 -1 -6 5 -6 7 0 11 -3 10
-7 -3 -11 13 -74 23 -93 4 -8 16 -51 25 -95 17 -81 19 -89 29 -160 3 -22 8
-48 11 -58 5 -17 15 -90 16 -117 0 -8 4 -34 9 -56 5 -23 11 -77 14 -120 3 -44
6 -86 7 -94 6 -79 2 -85 -79 -122 -132 -61 -257 -115 -283 -123 -14 -4 -29
-11 -35 -15 -11 -8 -99 -38 -131 -44 -10 -2 -32 -10 -49 -16 -16 -6 -37 -13
-45 -15 -8 -2 -62 -17 -120 -34 -58 -16 -121 -32 -140 -35 -19 -4 -53 -11 -75
-16 -65 -15 -235 -39 -310 -45 -38 -3 -115 -10 -170 -15 -274 -27 -706 15
-1040 101 -197 50 -445 134 -505 170 l-31 19 128 102 c70 56 205 179 299 273
201 201 229 232 359 400 38 50 72 92 75 95 15 13 136 200 207 320 194 324 340
679 443 1077 32 120 74 353 86 466 6 61 8 66 23 54 9 -8 25 -21 36 -30z
m-4270 23 c-3 -5 -1 -27 4 -47 6 -21 13 -60 16 -88 14 -112 84 -428 122 -550
46 -149 124 -362 164 -451 64 -145 155 -323 208 -411 34 -56 61 -104 61 -107
0 -4 5 -12 10 -19 6 -7 34 -48 62 -92 29 -44 57 -85 63 -91 5 -6 17 -22 25
-34 22 -33 83 -114 90 -120 3 -3 17 -21 30 -40 14 -19 32 -42 40 -51 8 -9 37
-43 65 -75 143 -169 376 -390 565 -538 41 -32 76 -61 78 -65 9 -25 -451 -179
-658 -220 -190 -38 -320 -54 -560 -71 -243 -18 -562 7 -855 66 -247 50 -515
137 -745 241 -194 88 -188 84 -194 126 -4 21 -5 41 -2 45 2 4 7 50 10 102 6
89 27 245 40 300 7 29 18 100 19 118 0 6 3 12 7 12 4 0 7 6 8 13 2 27 10 64
22 107 12 44 16 62 26 107 10 48 86 267 100 289 9 13 15 24 14 26 -1 2 3 16 9
31 6 16 11 31 11 33 0 14 158 342 170 354 5 5 13 19 58 99 46 84 240 363 271
391 3 3 24 27 46 55 112 140 355 381 480 476 17 13 32 26 35 29 3 3 21 18 40
33 35 27 56 35 45 17z"/>
</g>
</svg>
